<svg id="eweH5Jksrvh1" xmlns="http://www.w3.org/2000/svg" xmlns:xlink="http://www.w3.org/1999/xlink" viewBox="0 0 300 300" shape-rendering="geometricPrecision" text-rendering="geometricPrecision"><polygon points="0,-16.78618 15.964606,-5.187215 9.866669,13.580305 -9.866669,13.580305 -15.964606,-5.187215 0,-16.78618" transform="matrix(.999956 0.009415-.009415 0.999956 111.840358 120.923269)" fill="#142443" stroke-width="0"/><polygon points="0,-16.78618 15.964606,-5.187215 9.866669,13.580305 -9.866669,13.580305 -15.964606,-5.187215 0,-16.78618" transform="matrix(-.003309 0.999995-.999995-.003309 126.412212 135.616922)" fill="#d2dbed" stroke-width="0"/><polygon points="0,-16.78618 15.964606,-5.187215 9.866669,13.580305 -9.866669,13.580305 -15.964606,-5.187215 0,-16.78618" transform="matrix(.022476-.999747 0.999747 0.022476 98.000879 135.658253)" fill="#d2dbed" stroke-width="0"/><polygon points="0,-16.78618 15.964606,-5.187215 9.866669,13.580305 -9.866669,13.580305 -15.964606,-5.187215 0,-16.78618" transform="matrix(-.999998 0.00189-.00189-.999998 112.74741 150.321117)" fill="#6f88bc" stroke-width="0"/></svg>
